<?xml version="1.0" encoding="utf-8"?>
<svg version="1.1" id="Layer_1" x="0px" y="0px" viewBox="34.156 -0.016 118.892 110.335" enable-background="new 0 0 188 170" xmlns="http://www.w3.org/2000/svg">
  <g id="Wa3ed">
    <g id="_x30_1_x5F_Splash" transform="translate(-94.000000, -321.000000)">
      <g id="Group-30" transform="translate(94.000000, 321.000000)">
        <g id="Group-3" transform="translate(34.098837, 0.000000)">
          <g id="Clip-2"/>
          <defs>
            <filter id="Adobe_OpacityMaskFilter" filterUnits="userSpaceOnUse" x="0.1" y="0" width="104.1" height="110.3">
              <feColorMatrix type="matrix" values="1 0 0 0 0  0 1 0 0 0  0 0 1 0 0  0 0 0 1 0"/>
            </filter>
          </defs>
          <mask maskUnits="userSpaceOnUse" x="0.1" y="0" width="104.1" height="110.3" id="mask-2_2_">
            <g filter="url(#Adobe_OpacityMaskFilter)">
              <polygon id="path-1_2_" fill-rule="evenodd" clip-rule="evenodd" fill="#FFFFFF" points="0.1,0 104.2,0 104.2,110.3 &#10;&#9;&#9;&#9;&#9;&#9;&#9;&#9;0.1,110.3 &#9;&#9;&#9;&#9;&#9;&#9;"/>
            </g>
          </mask>
          <path id="Fill-1" mask="url(#mask-2_2_)" fill-rule="evenodd" clip-rule="evenodd" fill="#8319A5" d="M104.2,87.6 c-10.8,13.6-24.3,19.3-35.9,21.6c-11.6,2.3-23.7,0.9-34.4-3.8c-10.7-4.7-19.6-12.6-25.6-22.3C2.4,73.4-0.5,62,0.2,50.9 C0.8,39.8,4.9,29,11.7,20.4c6.7-8.6,16.1-15,26.3-18.1c10.2-3.1,21.3-3.1,31.3,0.1c10,3.2,18.8,9.5,25.1,17.6 C87.5,12.4,78.4,6.9,68.6,4.6C58.9,2.2,48.5,3,39.4,6.5C20.9,13.4,8.4,32.3,9,51.1c0.1,9.4,3.2,18.5,8.5,26 c5.4,7.4,12.9,13.1,21.3,16c8.4,2.9,17.6,3.3,26,1c8.4-2.3,10.2-8.6,21.9-5.8C94.1,90.2,99.1,91.3,104.2,87.6"/>
        </g>
        <path id="Fill-4" fill-rule="evenodd" clip-rule="evenodd" fill="#FFBD00" d="M111,56.5c4.4,6.2,3.1,8.1,6.6,11.9 c3.9,4.2,8.8,1.8,8.8,1.8C130.1,64.2,125.2,57,111,56.5"/>
        <path id="Fill-6" fill-rule="evenodd" clip-rule="evenodd" fill="#FFBD00" d="M144.9,66.4c-5.1,13.1-13.4,5.5-18.4,8.4 c-5.5,3.3-4.9,8.4-4.9,8.4C132,92.5,144.7,84.8,144.9,66.4"/>
        <path id="Fill-8" fill-rule="evenodd" clip-rule="evenodd" fill="#FFBD00" d="M129.8,68.3c-1.5-11.2,11.4-17.5,23.3-15.7 C142.4,52.4,143.9,78.8,129.8,68.3"/>
        <path id="Fill-10" fill-rule="evenodd" clip-rule="evenodd" fill="#FFBD00" d="M128.9,26.2c5,10.6-7.4,16.3-7,22.4 c0.4,6.1,5.8,9.2,5.8,9.2C139.1,53.5,140.3,38.9,128.9,26.2"/>
        <path id="Fill-12" fill-rule="evenodd" clip-rule="evenodd" fill="#FFBD00" d="M150,41.1c-2.8,4-2,5.2-4.2,7.7 c-2.5,2.7-5.7,1.1-5.7,1.1C137.7,46,140.9,41.5,150,41.1"/>
        <path id="Fill-14" fill-rule="evenodd" clip-rule="evenodd" fill="#8319A5" d="M14.5,126.9c0-2,1.4-3.4,3.5-3.4 c1.9,0,3.3,1.4,3.3,3.4c0,1.9-1.4,3.4-3.3,3.4C16,130.3,14.5,128.8,14.5,126.9L14.5,126.9z M17.2,142.2h-4.5 c-3.8,0-6.4,1.9-6.4,5.2c0,3.3,2.1,4.9,6.5,4.9c1.9,0,3.3-0.3,4.4-0.9V142.2z M5.8,126.9c0-1.9,1.5-3.4,3.4-3.4 c2,0,3.4,1.4,3.4,3.4c0,1-0.3,1.8-1,2.4C9.7,131.5,5.6,129.9,5.8,126.9L5.8,126.9z M29.6,156.2c0,1.8-0.4,2.7-1.1,2.7 c-4.8,0-7.8-0.7-9.2-2.3c-2.2,1.1-4.6,1.6-7.3,1.6c-3.5,0-6.3-0.9-8.6-2.7c-2.3-1.8-3.4-4.3-3.4-7.5c0-3.3,1.2-6,3.6-8.2 c2.3-2.2,5.7-3.3,10.1-3.3h7.7c1.4,0,2.5,1.1,2.5,2.5v10.8c0,2.6,2,3.6,4.6,3.4C29.2,153.1,29.6,154.1,29.6,156.2L29.6,156.2z"/>
        <path id="Fill-16" fill-rule="evenodd" clip-rule="evenodd" fill="#8319A5" d="M45,166.6c0,1.9-1.4,3.4-3.3,3.4 c-2,0-3.5-1.4-3.5-3.4c0-2,1.5-3.5,3.5-3.5C43.6,163.2,45,164.7,45,166.6 M36.3,166.6c0,1.9-1.4,3.4-3.4,3.4 c-1.9,0-3.4-1.4-3.4-3.4c0-2,1.5-3.5,3.4-3.5C34.9,163.2,36.3,164.7,36.3,166.6 M48.2,156.2c0,1.8-0.4,2.7-1.1,2.7 c-3.8,0-6.4-1.1-7.9-3.2c-1.8,2.1-5,3.2-9.6,3.2h-1.1v-5.7h1.1c4.3,0,5.5-1.5,5.5-6.3v-7.3c0-1.7,1.4-3.2,3.2-3.2 c1.7,0,3.2,1.4,3.2,3.2v8.1c0,3.6,1.9,5.4,5.7,5.4C47.8,153.2,48.2,154.2,48.2,156.2"/>
        <path id="Fill-18" fill-rule="evenodd" clip-rule="evenodd" fill="#8319A5" d="M50.2,166.6c0-2,1.4-3.5,3.4-3.5 c2,0,3.3,1.5,3.3,3.5c0,1-0.3,1.8-0.9,2.4C54.1,171.1,49.8,169.6,50.2,166.6L50.2,166.6z M47.1,153.2c4.1,0,5.4-1.4,5.4-6.3v-7.3 c0-1.7,1.4-3.2,3.2-3.2h0c1.7,0,3.2,1.4,3.2,3.2v8.1c0,8.1-3.6,11.1-11.7,11.1V153.2z"/>
        <path id="Fill-20" fill-rule="evenodd" clip-rule="evenodd" fill="#8319A5" d="M79.8,153.2c0.7,0,1.1,1,1.1,3 c0,1.8-0.4,2.7-1.1,2.7h-5.7c-0.9,5.1-3.8,8.2-9,9.4c-1.6,0.3-3.2-0.7-3.4-2.3c-0.3-1.5,0.7-2.8,2.1-3.3c3-0.9,4.2-2.7,4.2-6.2 v-16.7c0-1.7,1.4-3.2,3.2-3.2s3.2,1.4,3.2,3.2v13.5H79.8z"/>
        <path id="Fill-22" fill-rule="evenodd" clip-rule="evenodd" fill="#8319A5" d="M89.8,126.9c0-2,1.4-3.4,3.5-3.4 c1.9,0,3.3,1.4,3.3,3.4c0,1.9-1.4,3.4-3.3,3.4C91.3,130.3,89.8,128.8,89.8,126.9L89.8,126.9z M81.1,126.9c0-1.9,1.5-3.4,3.4-3.4 c2,0,3.4,1.4,3.4,3.4c0,1-0.3,1.8-1,2.4C85,131.5,80.9,129.9,81.1,126.9L81.1,126.9z M79.8,158.8v-5.7h1.1c4.3,0,5.5-1.5,5.5-6.3 v-7.3c0-1.7,1.4-3.2,3.2-3.2c1.7,0,3.2,1.4,3.2,3.2v8.1c0,8.1-3.5,11.1-11.8,11.1H79.8z"/>
        <path id="Fill-24" fill-rule="evenodd" clip-rule="evenodd" fill="#8319A5" d="M124,126c2.1,1.7,3.1,4,3.1,6.8 c0,3.9-2.3,6.9-5.9,7.9v0.1c4.1,0.5,6.8,3.9,6.8,8.5c0,3.1-1.1,5.5-3.3,7.4c-2.2,1.9-5,2.8-8.4,2.8c-4.7,0-8.3-1.6-10.3-4.6 c-1.1-1.6-0.3-3.9,1.7-4.4l0.6-0.2c1.3-0.3,2.6,0.3,3.3,1.5c1,1.6,2.6,2.4,4.8,2.4c3.3,0,5.8-2.3,5.8-5.5c0-3-2.4-4.7-6.6-5.2 c-1.3-0.1-2.4-1.2-2.5-2.6c-0.1-1.5,1-2.8,2.5-2.9c0.8,0,1.6-0.1,2.3-0.3c0.7-0.1,1.3-0.4,1.8-0.7c0.8-0.6,1.6-1.9,1.6-3.6 c0-2.8-2.1-4.6-5-4.6c-1.7,0-3.2,0.7-4.3,2.1c-0.8,1-1.9,1.5-3.1,1.2l-0.6-0.2c-2-0.5-2.9-2.9-1.6-4.5c2.1-2.5,5.3-3.9,9.3-3.9 C119.2,123.5,121.9,124.3,124,126"/>
        <path id="Fill-26" fill-rule="evenodd" clip-rule="evenodd" fill="#8319A5" d="M139.4,147.5c0,1.8,0.6,3.2,1.9,4.5 c1.2,1.2,2.8,1.9,4.5,1.9c1.7,0,3.2-0.6,4.5-1.9c1.2-1.2,1.9-2.8,1.9-4.5c0-1.8-0.6-3.3-1.9-4.5c-1.2-1.2-2.8-1.8-4.5-1.8 c-1.7,0-3.2,0.6-4.4,1.8C140.1,144.2,139.4,145.8,139.4,147.5 M147,124.1c2.4,0,3.8,2.6,2.5,4.6l-5.3,8.2l0.1,0.1 c0.6-0.3,1.4-0.5,2.5-0.6c3-0.2,6,0.9,8.1,3c2.1,2.1,3.2,4.9,3.2,8.1c0,3.6-1.2,6.5-3.5,8.7c-2.3,2.2-5.3,3.2-8.9,3.2 c-3.7,0-6.7-1.1-9-3.2c-2.3-2.1-3.4-5-3.4-8.6c0-3.7,1.3-6.4,3.9-10.6l7.4-11.6C145,124.6,146,124.1,147,124.1"/>
        <path id="Fill-28" fill-rule="evenodd" clip-rule="evenodd" fill="#8319A5" d="M174.7,153.9c4.4,0,6.7-4.5,6.7-12.4 c0-7.9-2.4-12.4-6.7-12.4c-4.3,0-6.6,4.5-6.6,12.4C168,149.2,170.3,153.9,174.7,153.9 M174.7,123.5c4,0,7.1,1.5,9.3,4.6 c2.2,3.1,3.3,7.6,3.3,13.4c0,5.8-1.1,10.3-3.2,13.4c-2.2,3.1-5.3,4.6-9.3,4.6c-4,0-7.1-1.5-9.3-4.6c-2.2-3-3.3-7.5-3.3-13.4 c0-5.8,1.1-10.3,3.3-13.4C167.6,125,170.7,123.5,174.7,123.5"/>
      </g>
    </g>
  </g>
</svg>